<svg width="222" height="169" viewBox="0 0 222 169" fill="none" xmlns="http://www.w3.org/2000/svg">
<path d="M114.805 57.4026C114.805 89.1052 89.1052 114.805 57.4026 114.805C25.7 114.805 0 89.1052 0 57.4026C0 25.7 25.7 0 57.4026 0C89.1052 0 114.805 25.7 114.805 57.4026ZM11.3974 57.4026C11.3974 82.8106 31.9946 103.408 57.4026 103.408C82.8106 103.408 103.408 82.8106 103.408 57.4026C103.408 31.9946 82.8106 11.3974 57.4026 11.3974C31.9946 11.3974 11.3974 31.9946 11.3974 57.4026Z" fill="#D9D9D9"/>
<path d="M122.842 175.078C122.842 169.047 121.654 163.076 119.346 157.504C117.038 151.933 113.656 146.87 109.391 142.606C105.127 138.342 100.065 134.959 94.4931 132.651C88.9216 130.344 82.9501 129.156 76.9195 129.156C70.8889 129.156 64.9174 130.344 59.3459 132.651C53.7744 134.959 48.712 138.342 44.4477 142.606C40.1834 146.87 36.8008 151.933 34.493 157.504C32.1852 163.076 30.9974 169.047 30.9974 175.078L40.1153 175.078C40.1153 170.245 41.0673 165.459 42.9169 160.994C44.7665 156.528 47.4775 152.471 50.895 149.053C54.3126 145.636 58.3699 142.925 62.8352 141.075C67.3005 139.226 72.0863 138.274 76.9195 138.274C81.7527 138.274 86.5386 139.226 91.0039 141.075C95.4691 142.925 99.5264 145.636 102.944 149.053C106.362 152.471 109.073 156.528 110.922 160.994C112.772 165.459 113.724 170.245 113.724 175.078H122.842Z" fill="#D9D9D9"/>
<path d="M221.574 107.343C221.574 134.607 199.472 156.709 172.208 156.709C144.944 156.709 122.842 134.607 122.842 107.343C122.842 80.0786 144.944 57.9766 172.208 57.9766C199.472 57.9766 221.574 80.0786 221.574 107.343ZM132.643 107.343C132.643 129.194 150.357 146.907 172.208 146.907C194.059 146.907 211.772 129.194 211.772 107.343C211.772 85.492 194.059 67.7784 172.208 67.7784C150.357 67.7784 132.643 85.492 132.643 107.343Z" fill="#D9D9D9"/>
</svg>
