<svg width="178" height="221" viewBox="0 0 178 221" fill="none" xmlns="http://www.w3.org/2000/svg">
<path d="M114.805 57.4026C114.805 89.1052 89.1052 114.805 57.4026 114.805C25.7 114.805 0 89.1052 0 57.4026C0 25.7 25.7 0 57.4026 0C89.1052 0 114.805 25.7 114.805 57.4026ZM11.3974 57.4026C11.3974 82.8106 31.9946 103.408 57.4026 103.408C82.8106 103.408 103.408 82.8106 103.408 57.4026C103.408 31.9946 82.8106 11.3974 57.4026 11.3974C31.9946 11.3974 11.3974 31.9946 11.3974 57.4026Z" fill="#DA4167"/>
<path d="M122.842 175.078C122.842 200.44 102.282 221 76.9196 221C51.5576 221 30.9976 200.44 30.9976 175.078C30.9976 149.716 51.5576 129.156 76.9196 129.156C102.282 129.156 122.842 149.716 122.842 175.078ZM40.1155 175.078C40.1155 195.404 56.5933 211.882 76.9196 211.882C97.246 211.882 113.724 195.404 113.724 175.078C113.724 154.752 97.246 138.274 76.9196 138.274C56.5933 138.274 40.1155 154.752 40.1155 175.078Z" fill="#DA4167"/>
<path d="M221.574 107.343C221.574 134.607 199.472 156.709 172.208 156.709C144.944 156.709 122.842 134.607 122.842 107.343C122.842 80.0786 144.944 57.9766 172.208 57.9766C199.472 57.9766 221.574 80.0786 221.574 107.343ZM132.643 107.343C132.643 129.194 150.357 146.907 172.208 146.907C194.059 146.907 211.772 129.194 211.772 107.343C211.772 85.492 194.059 67.7784 172.208 67.7784C150.357 67.7784 132.643 85.492 132.643 107.343Z" fill="#DA4167"/>
</svg>
