<svg width="178" height="221" viewBox="0 0 178 221" fill="none" xmlns="http://www.w3.org/2000/svg">
<path d="M70.8052 57.4026C70.8052 89.1052 45.1052 114.805 13.4026 114.805C-18.3 114.805 -44 89.1052 -44 57.4026C-44 25.7 -18.3 0 13.4026 0C45.1052 0 70.8052 25.7 70.8052 57.4026ZM-32.6026 57.4026C-32.6026 82.8106 -12.0054 103.408 13.4026 103.408C38.8106 103.408 59.4078 82.8106 59.4078 57.4026C59.4078 31.9946 38.8106 11.3974 13.4026 11.3974C-12.0054 11.3974 -32.6026 31.9946 -32.6026 57.4026Z" fill="#DA4167"/>
<path d="M78.8417 175.078C78.8417 200.44 58.2817 221 32.9196 221C7.55757 221 -13.0024 200.44 -13.0024 175.078C-13.0024 149.716 7.55757 129.156 32.9196 129.156C58.2817 129.156 78.8417 149.716 78.8417 175.078ZM-3.88453 175.078C-3.88453 195.404 12.5933 211.882 32.9196 211.882C53.246 211.882 69.7238 195.404 69.7238 175.078C69.7238 154.752 53.246 138.274 32.9196 138.274C12.5933 138.274 -3.88453 154.752 -3.88453 175.078Z" fill="#DA4167"/>
<path d="M177.574 107.343C177.574 134.607 155.472 156.709 128.208 156.709C100.944 156.709 78.8416 134.607 78.8416 107.343C78.8416 80.0786 100.944 57.9766 128.208 57.9766C155.472 57.9766 177.574 80.0786 177.574 107.343ZM88.6433 107.343C88.6433 129.194 106.357 146.907 128.208 146.907C150.059 146.907 167.772 129.194 167.772 107.343C167.772 85.492 150.059 67.7784 128.208 67.7784C106.357 67.7784 88.6433 85.492 88.6433 107.343Z" fill="#DA4167"/>
</svg>
